<?xml version="1.0" standalone="no"?>
<!DOCTYPE svg PUBLIC "-//W3C//DTD SVG 20010904//EN"
 "http://www.w3.org/TR/2001/REC-SVG-20010904/DTD/svg10.dtd">
<svg version="1.0" xmlns="http://www.w3.org/2000/svg"
 width="700.000000pt" height="700.000000pt" viewBox="0 0 700.000000 700.000000"
 preserveAspectRatio="xMidYMid meet">
<metadata>
Created by potrace 1.11, written by Peter Selinger 2001-2013
</metadata>
<g transform="translate(0.000000,700.000000) scale(0.100000,-0.100000)"
fill="#000000" stroke="none">
<path d="M4146 6691 c-6 -10 -12 -48 -21 -136 -9 -92 -15 -147 -20 -180 -2
-16 -7 -59 -10 -95 -8 -87 -12 -97 -40 -104 -35 -9 -83 -62 -96 -106 -14 -47
-1 -89 44 -137 l29 -31 -22 -22 c-22 -22 -22 -22 -129 -6 -166 24 -234 29
-406 28 -705 -4 -1358 -302 -1824 -832 -101 -116 -117 -137 -196 -255 -184
-276 -305 -569 -370 -900 -35 -182 -44 -291 -40 -510 5 -330 65 -617 192 -915
43 -101 114 -241 136 -268 5 -7 8 -14 6 -17 -3 -2 -133 -5 -289 -7 l-285 -3
-56 -27 c-93 -46 -157 -126 -177 -223 -5 -22 -8 -319 -7 -660 1 -474 4 -630
14 -660 30 -95 124 -183 220 -208 42 -11 560 -13 2714 -12 2584 1 2663 1 2707
20 62 26 104 59 145 115 61 83 61 85 60 772 0 595 -1 625 -20 677 -26 70 -92
143 -161 177 -63 31 -99 34 -432 34 l-214 0 22 32 c29 45 128 249 157 328 213
558 222 1147 28 1710 -48 141 -178 402 -262 527 -245 365 -549 638 -934 838
-120 62 -142 77 -179 125 -24 30 -48 60 -54 65 -6 6 -26 27 -44 46 l-33 36 30
32 c74 79 51 184 -51 237 -16 8 -28 20 -29 27 0 6 -2 19 -4 27 -1 8 -5 47 -9
85 -7 68 -10 97 -20 180 -3 22 -8 69 -11 105 -3 36 -8 73 -11 83 -6 18 -39 24
-48 8z m-406 -962 c63 -6 118 -13 122 -16 5 -2 -7 -27 -25 -56 -30 -47 -48
-94 -60 -154 -7 -33 13 -113 38 -153 12 -19 50 -62 84 -95 l61 -59 0 -278 0
-277 -75 -173 c-42 -95 -82 -186 -90 -203 -7 -16 -66 -151 -130 -300 -64 -148
-124 -283 -133 -300 -13 -25 -16 -79 -18 -320 -1 -159 -3 -294 -4 -300 -1 -5
-17 21 -35 60 l-33 69 24 29 c36 42 32 91 -8 131 -18 18 -38 35 -45 37 -7 2
-14 39 -17 94 -3 50 -9 133 -12 185 -6 98 -15 116 -46 99 -13 -7 -18 -22 -19
-57 0 -55 -6 -149 -14 -247 -4 -48 -11 -73 -21 -80 -70 -44 -88 -89 -60 -144
9 -17 21 -31 27 -31 6 0 8 -9 3 -22 -9 -30 -46 -112 -54 -118 -3 -3 -13 -16
-21 -30 -9 -14 -65 -77 -124 -140 -100 -108 -195 -234 -195 -259 0 -31 -18 -3
-40 62 -24 69 -27 72 -60 77 l-35 5 1 211 0 210 40 68 c21 38 44 76 49 85 132
212 167 296 171 401 3 90 -12 144 -63 227 -49 80 -81 120 -173 216 -152 160
-221 277 -185 317 44 48 34 116 -23 155 -22 15 -37 34 -38 47 -1 13 -5 68 -9
123 -15 239 -14 235 -40 235 -20 0 -28 -18 -31 -65 -1 -22 -5 -93 -9 -158 -6
-113 -11 -158 -17 -161 -43 -26 -60 -41 -72 -65 -18 -34 -14 -66 15 -104 20
-27 20 -30 4 -70 -31 -79 -73 -135 -194 -262 -98 -103 -146 -167 -187 -250
-79 -160 -56 -278 103 -543 52 -86 100 -168 106 -182 5 -14 10 -114 11 -230
l1 -205 -34 -5 c-30 -4 -37 -11 -52 -50 -31 -79 -129 -397 -129 -416 1 -11 7
-36 14 -56 l14 -38 -214 0 -213 0 -49 83 c-153 261 -257 559 -303 872 -17 115
-17 471 -1 590 71 508 295 963 649 1322 393 397 943 646 1483 670 74 3 136 6
137 7 4 3 153 -5 253 -15z m1010 -362 c129 -86 143 -97 259 -198 42 -36 108
-99 146 -140 72 -77 148 -168 130 -157 -16 10 -35 -6 -40 -33 -2 -13 -6 -83
-10 -154 -9 -181 -10 -186 -36 -206 -13 -10 -27 -19 -30 -19 -8 0 -29 -41 -34
-69 -4 -24 8 -55 32 -79 35 -36 -47 -167 -220 -348 -68 -72 -132 -156 -154
-202 -13 -27 -18 -31 -25 -19 -8 16 -225 511 -305 697 -25 58 -54 125 -66 150
-20 42 -21 63 -22 323 l-1 279 58 56 c71 70 113 135 123 190 l7 42 56 -31 c32
-18 91 -55 132 -82z m698 -722 c149 -243 281 -601 307 -831 l6 -59 -27 45
c-35 56 -78 106 -218 254 -61 64 -117 149 -135 204 -13 39 -13 44 6 65 31 33
34 73 9 110 -12 18 -31 36 -43 42 -27 12 -31 26 -38 145 -3 52 -8 129 -11 170
l-5 75 47 -65 c26 -35 72 -105 102 -155z m328 -1352 c-7 -131 -9 -146 -37
-288 -26 -127 -63 -259 -100 -356 -28 -73 -30 -76 -62 -75 l-32 1 0 214 0 213
102 170 c56 94 107 186 113 204 7 19 14 34 17 34 3 0 3 -53 -1 -117z m-789
-266 c13 -25 15 -68 15 -226 0 -244 0 -232 -14 -230 -49 6 -56 -1 -79 -68 -13
-38 -24 -75 -26 -83 -2 -8 -16 -53 -32 -100 l-29 -85 -1 534 -1 535 76 -124
c41 -68 82 -137 91 -153z"/>
</g>
</svg>
