<?xml version="1.0" encoding="UTF-8" standalone="no"?>
<!-- Created with Inkscape (http://www.inkscape.org/) -->

<svg
   xmlns:dc="http://purl.org/dc/elements/1.1/"
   xmlns:cc="http://creativecommons.org/ns#"
   xmlns:rdf="http://www.w3.org/1999/02/22-rdf-syntax-ns#"
   xmlns:svg="http://www.w3.org/2000/svg"
   xmlns="http://www.w3.org/2000/svg"
   xmlns:sodipodi="http://sodipodi.sourceforge.net/DTD/sodipodi-0.dtd"
   xmlns:inkscape="http://www.inkscape.org/namespaces/inkscape"
   width="900"
   height="900"
   viewBox="0 0 900.00002 900.00002"
   id="svg4769"
   version="1.1"
   inkscape:version="0.91 r13725"
   sodipodi:docname="progmsk_logo_simple.svg">
  <defs
     id="defs4771">
    <clipPath
       clipPathUnits="userSpaceOnUse"
       id="clipPath4487">
      <circle
         r="305"
         cy="178.21936"
         cx="341"
         id="circle4489"
         style="opacity:1;fill:none;fill-opacity:1;fill-rule:nonzero;stroke:#000000;stroke-width:20;stroke-linecap:butt;stroke-linejoin:bevel;stroke-miterlimit:4;stroke-dasharray:none;stroke-opacity:1" />
    </clipPath>
    <clipPath
       clipPathUnits="userSpaceOnUse"
       id="clipPath4491">
      <circle
         r="305"
         cy="608.50568"
         cx="449.05704"
         id="circle4493"
         style="opacity:1;fill:none;fill-opacity:1;fill-rule:nonzero;stroke:#000000;stroke-width:20;stroke-linecap:butt;stroke-linejoin:bevel;stroke-miterlimit:4;stroke-dasharray:none;stroke-opacity:1" />
    </clipPath>
    <clipPath
       clipPathUnits="userSpaceOnUse"
       id="clipPath4495">
      <circle
         r="305"
         cy="608.50568"
         cx="449.05704"
         id="circle4497"
         style="opacity:1;fill:none;fill-opacity:1;fill-rule:nonzero;stroke:#000000;stroke-width:20;stroke-linecap:butt;stroke-linejoin:bevel;stroke-miterlimit:4;stroke-dasharray:none;stroke-opacity:1" />
    </clipPath>
  </defs>
  <sodipodi:namedview
     id="base"
     pagecolor="#ffffff"
     bordercolor="#666666"
     borderopacity="1.0"
     inkscape:pageopacity="0.0"
     inkscape:pageshadow="2"
     inkscape:zoom="0.7"
     inkscape:cx="637.19122"
     inkscape:cy="503.61062"
     inkscape:document-units="px"
     inkscape:current-layer="layer1"
     showgrid="false"
     units="px"
     inkscape:window-width="1920"
     inkscape:window-height="1062"
     inkscape:window-x="0"
     inkscape:window-y="18"
     inkscape:window-maximized="0" />
  <metadata
     id="metadata4774">
    <rdf:RDF>
      <cc:Work
         rdf:about="">
        <dc:format>image/svg+xml</dc:format>
        <dc:type
           rdf:resource="http://purl.org/dc/dcmitype/StillImage" />
        <dc:title />
      </cc:Work>
    </rdf:RDF>
  </metadata>
  <g
     inkscape:label="Layer 1"
     inkscape:groupmode="layer"
     id="layer1"
     transform="translate(0,-152.36202)">
    <circle
       style="opacity:1;fill:none;fill-opacity:1;fill-rule:nonzero;stroke:#000000;stroke-width:20;stroke-linecap:butt;stroke-linejoin:bevel;stroke-miterlimit:4;stroke-dasharray:none;stroke-opacity:1"
       id="circle4559"
       cx="449.05701"
       cy="608.50549"
       r="305" />
    <rect
       ry="0"
       y="152.36201"
       x="0"
       height="900"
       width="900"
       id="rect4619"
       style="opacity:1;fill:none;fill-opacity:1;fill-rule:nonzero;stroke:none;stroke-width:5.00099993;stroke-linecap:butt;stroke-linejoin:miter;stroke-miterlimit:4;stroke-dasharray:none;stroke-opacity:1" />
    <circle
       r="305"
       cy="608.50549"
       cx="449.05701"
       id="circle4621"
       style="opacity:1;fill:none;fill-opacity:1;fill-rule:nonzero;stroke:#000000;stroke-width:20;stroke-linecap:butt;stroke-linejoin:bevel;stroke-miterlimit:4;stroke-dasharray:none;stroke-opacity:1" />
    <g
       clip-path="url(#clipPath4495)"
       id="g4623"
       transform="translate(0,-1.628125e-4)">
      <path
         sodipodi:nodetypes="cccccscccccccccccccccccsccccccc"
         inkscape:connector-curvature="0"
         id="path4625"
         d="m 315.3394,408.72356 c -0.86727,14.65282 -1.15484,30.43514 -3.22851,45.63867 -6.43646,1.12285 -10.99367,5.41713 -11.00196,10.36719 0.006,3.77529 2.6788,7.26634 7.02539,9.17773 -1.96542,6.86992 -4.56984,13.43724 -8.0957,19.50391 -14.57184,22.33688 -33.8503,32.47439 -45.86914,58.49609 -14.9544,32.3774 18.52374,64.14248 30.20313,90.67968 l 0,58.57227 -10,0 -17.85743,55.71289 15,46.42969 0.71289,60.71289 43.11133,0.70703 0,0.008 0.23047,-0.004 0.23047,0.004 0,-0.008 43.11133,-0.70703 0.71289,-60.71289 15,-46.42969 -17.85742,-55.71289 -10,0 0,-58.57227 c 11.67939,-26.5372 45.15752,-58.30228 30.20312,-90.67968 -12.01884,-26.0217 -31.2973,-36.15921 -45.86914,-58.49609 -3.52586,-6.06668 -6.13028,-12.63397 -8.0957,-19.50391 4.34659,-1.91139 7.01893,-5.40244 7.02539,-9.17773 -0.008,-4.95006 -4.5655,-9.24433 -11.00195,-10.36719 -2.07377,-15.2042 -2.36116,-30.98726 -3.22852,-45.64063 l -0.23047,-3.48046 z"
         style="fill:#ffffff;fill-rule:evenodd;stroke:#000000;stroke-width:7.30000019;stroke-linecap:round;stroke-linejoin:round;stroke-miterlimit:4;stroke-dasharray:none;stroke-opacity:1" />
      <path
         inkscape:connector-curvature="0"
         id="path4627"
         d="m 312.51128,451.07902 c -0.13117,1.09525 -0.25173,2.19328 -0.40039,3.28321 -2.79434,0.48748 -5.23213,1.57366 -7.09961,3.05078 l 21.11718,0 c -1.86752,-1.47712 -4.30527,-2.5633 -7.0996,-3.05078 -0.14867,-1.08997 -0.26922,-2.18791 -0.4004,-3.28321 l -6.11718,0 z m -8.32032,20.25391 c 1.07617,1.01744 2.40187,1.89635 3.94336,2.57422 -0.36179,1.2646 -0.7533,2.51496 -1.16015,3.75781 l 17.1914,0 c -0.40685,-1.24285 -0.79836,-2.49321 -1.16015,-3.75781 1.54149,-0.67787 2.86724,-1.55678 3.94336,-2.57422 l -22.75782,0 z m -4.08398,21.95508 c -0.0235,0.0406 -0.0448,0.0825 -0.0684,0.12305 -1.82583,2.79878 -3.7257,5.40598 -5.67578,7.87695 l 42.41406,0 c -1.95008,-2.47097 -3.84995,-5.07817 -5.67578,-7.87695 -0.0236,-0.0406 -0.0449,-0.0824 -0.0684,-0.12305 l -30.92578,0 z m -34.20703,117.74218 c 1.64759,2.69993 3.32375,5.36119 4.99023,8 l 89.35938,0 c 1.66649,-2.63881 3.34264,-5.30007 4.99023,-8 l -99.33984,0 z m 14.83203,24.25782 c 1.35497,2.47266 2.58825,4.90767 3.64063,7.29882 l 0,0.70118 62.39453,0 0,-0.70118 c 1.05237,-2.39115 2.28565,-4.82616 3.64062,-7.29882 l -69.67578,0 z m 34.92578,16.29882 c -10.85269,0 -19.71484,8.86215 -19.71484,19.71485 l 0,25.98633 -11.57031,0 0,3.87109 -10,0 -1.32422,4.12891 26.58203,0 a 4.0004,4.0004 0 0 0 0.3125,0.0137 l 31.42969,0 a 4.0004,4.0004 0 0 0 0.27929,-0.0137 l 26.43946,0 -1.32422,-4.12891 -10,0 0,-3.87109 -11.39453,0 0,-25.98633 c 0,-10.8527 -8.86215,-19.71485 -19.71485,-19.71485 z m 0,8 c 6.55874,0 11.71485,5.15611 11.71485,11.71485 l 0,25.98633 -23.42969,0 0,-25.98633 c 0,-6.55874 5.15612,-11.71485 11.71484,-11.71485 z M 287.5269,720.0673 c -8.61994,-6e-5 -16.44347,3.49372 -22.14258,9.13282 l -8.86914,27.67187 0.0508,0.1582 118.00782,0 0.0508,-0.1582 -8.62305,-26.9043 c -5.75212,-6.08675 -13.88563,-9.89999 -22.88867,-9.90039 -12.08997,-9e-5 -22.50481,6.94037 -27.79297,16.97071 -5.28815,-10.03034 -15.703,-16.9708 -27.79297,-16.97071 z m 0,8 c 11.9935,-9e-5 21.72048,8.90108 23.22656,20.46875 l -4.99414,0 c -1.47924,-8.74433 -9.08596,-15.48047 -18.23242,-15.48047 -9.14645,1e-5 -16.75318,6.73615 -18.23242,15.48047 l -4.99414,0 c 1.50609,-11.56767 11.23307,-20.46884 23.22656,-20.46875 z m 55.58594,0 c 11.99305,5.3e-4 21.71862,8.90148 23.22461,20.46875 l -4.99219,0 c -1.47924,-8.74432 -9.08597,-15.48046 -18.23242,-15.48047 -9.14646,0 -16.75513,6.73614 -18.23438,15.48047 l -4.99218,0 c 1.50609,-11.56767 11.23306,-20.46884 23.22656,-20.46875 z m -55.58594,12.98828 c 4.98108,0 9.08842,3.36945 10.22266,7.97461 l -20.44531,0 c 1.13433,-4.60549 5.24126,-7.97461 10.22265,-7.97461 z m 55.58594,0 c 4.98136,0 9.08674,3.369 10.2207,7.97461 l -20.44531,0 c 1.13476,-4.6055 5.24321,-7.97461 10.22461,-7.97461 z m -72.33203,59.97461 0.73437,2.27149 0.0664,5.72851 87.97656,0 0.0664,-5.72851 0.73437,-2.27149 -89.57812,0 z"
         style="color:#000000;font-style:normal;font-variant:normal;font-weight:normal;font-stretch:normal;font-size:medium;line-height:normal;font-family:sans-serif;text-indent:0;text-align:start;text-decoration:none;text-decoration-line:none;text-decoration-style:solid;text-decoration-color:#000000;letter-spacing:normal;word-spacing:normal;text-transform:none;direction:ltr;block-progression:tb;writing-mode:lr-tb;baseline-shift:baseline;text-anchor:start;white-space:normal;clip-rule:nonzero;display:inline;overflow:visible;visibility:visible;opacity:1;isolation:auto;mix-blend-mode:normal;color-interpolation:sRGB;color-interpolation-filters:linearRGB;solid-color:#000000;solid-opacity:1;fill:#000000;fill-opacity:1;fill-rule:nonzero;stroke:none;stroke-width:6.33289719;stroke-linecap:round;stroke-linejoin:round;stroke-miterlimit:4;stroke-dasharray:none;stroke-dashoffset:0;stroke-opacity:1;color-rendering:auto;image-rendering:auto;shape-rendering:auto;text-rendering:auto;enable-background:accumulate" />
      <path
         inkscape:connector-curvature="0"
         style="color:#000000;font-style:normal;font-variant:normal;font-weight:normal;font-stretch:normal;font-size:medium;line-height:normal;font-family:sans-serif;text-indent:0;text-align:start;text-decoration:none;text-decoration-line:none;text-decoration-style:solid;text-decoration-color:#000000;letter-spacing:normal;word-spacing:normal;text-transform:none;direction:ltr;block-progression:tb;writing-mode:lr-tb;baseline-shift:baseline;text-anchor:start;white-space:normal;clip-rule:nonzero;display:inline;overflow:visible;visibility:visible;opacity:1;isolation:auto;mix-blend-mode:normal;color-interpolation:sRGB;color-interpolation-filters:linearRGB;solid-color:#000000;solid-opacity:1;fill:#000000;fill-opacity:1;fill-rule:evenodd;stroke:none;stroke-width:8;stroke-linecap:butt;stroke-linejoin:miter;stroke-miterlimit:4;stroke-dasharray:none;stroke-dashoffset:0;stroke-opacity:1;color-rendering:auto;image-rendering:auto;shape-rendering:auto;text-rendering:auto;enable-background:accumulate"
         d="m 298.67646,495.4437 c -0.59078,0.85971 -1.18922,1.69588 -1.79297,2.52149 7.66135,35.67322 25.7111,74.46221 56.53906,117.19336 l 9.25586,0 c 0.0994,-0.15883 0.19757,-0.31948 0.29688,-0.47852 -32.47972,-44.08288 -50.9443,-83.52574 -58.45899,-119.23633 l -5.83984,0 z m 21.68554,0 c 9.82167,30.80148 27.25649,63.90125 53.58789,99.74805 1.35021,-2.86541 2.55362,-5.75373 3.5625,-8.66211 -23.63237,-32.82457 -39.46649,-63.06447 -48.74023,-91.08594 l -8.41016,0 z m -40.62695,22.09375 c -2.16081,2.24371 -4.31994,4.48649 -6.43945,6.78711 8.06815,28.22388 22.53044,58.37441 44.49414,90.83399 l 9.69922,0 C 302.91308,579.72536 287.562,547.35371 279.73505,517.53745 Z m -20.35937,24.6875 c -1.81246,2.93414 -3.52851,6.07488 -5.11719,9.49414 7.49864,20.14048 18.17781,41.24328 32.41211,63.43946 l 9.53906,0 C 279.1626,589.25383 267.1194,565.01254 259.37568,542.22495 Z"
         id="path4629" />
    </g>
    <circle
       r="305"
       cy="608.50549"
       cx="449.05701"
       id="circle4631"
       style="opacity:1;fill:none;fill-opacity:1;fill-rule:nonzero;stroke:#000000;stroke-width:20;stroke-linecap:butt;stroke-linejoin:bevel;stroke-miterlimit:4;stroke-dasharray:none;stroke-opacity:1" />
    <g
       id="g4633"
       transform="translate(0,-1.628125e-4)">
      <path
         style="fill:#ffffff;fill-rule:evenodd;stroke:#000000;stroke-width:7.56890154;stroke-linecap:butt;stroke-linejoin:round;stroke-miterlimit:4;stroke-dasharray:none;stroke-opacity:1"
         d="m 528.70897,259.88975 c -10.61334,1.66722 -15.57898,8.96601 -16.61903,14.43116 -0.95778,5.03289 2.60058,13.63657 13.33481,17.81145 -18.48918,16.43291 -35.14238,39.89529 -36.06378,52.90076 -1.46929,20.73911 14.85249,26.75029 23.59274,38.56316 l 0,72.69234 -57.29862,131.35743 0,343.05986 80.05708,0 0.15863,0 80.05709,0 0,-343.05986 -57.29666,-131.35743 0,-72.69234 c 8.74025,-11.81287 25.06203,-17.82405 23.59274,-38.56316 -0.9214,-13.00547 -17.5746,-36.46785 -36.06378,-52.90076 12.83661,-6.98338 13.06813,-15.23443 12.32194,-19.27686 -0.74281,-4.02408 -5.75443,-11.29643 -15.60812,-12.96575 l -7.08349,-65.3331 z"
         id="path4635"
         inkscape:connector-curvature="0"
         sodipodi:nodetypes="cscsccccccccccscsccc" />
      <path
         inkscape:connector-curvature="0"
         style="color:#000000;font-style:normal;font-variant:normal;font-weight:normal;font-stretch:normal;font-size:medium;line-height:normal;font-family:sans-serif;text-indent:0;text-align:start;text-decoration:none;text-decoration-line:none;text-decoration-style:solid;text-decoration-color:#000000;letter-spacing:normal;word-spacing:normal;text-transform:none;direction:ltr;block-progression:tb;writing-mode:lr-tb;baseline-shift:baseline;text-anchor:start;white-space:normal;clip-rule:nonzero;display:inline;overflow:visible;visibility:visible;opacity:1;isolation:auto;mix-blend-mode:normal;color-interpolation:sRGB;color-interpolation-filters:linearRGB;solid-color:#000000;solid-opacity:1;fill:#000000;fill-opacity:1;fill-rule:evenodd;stroke:none;stroke-width:8;stroke-linecap:butt;stroke-linejoin:bevel;stroke-miterlimit:4;stroke-dasharray:none;stroke-dashoffset:0;stroke-opacity:1;color-rendering:auto;image-rendering:auto;shape-rendering:auto;text-rendering:auto;enable-background:accumulate"
         d="m 529.07127,256.5403 -0.3623,3.34945 c -4.17551,0.70737 -8.49318,1.97362 -12.20665,3.79233 l 38.57835,0 c -3.71381,-1.81862 -8.03128,-3.08497 -12.20666,-3.79233 l -0.3623,-3.34945 -13.44044,0 z m -15.88647,30.66117 c 3.32393,2.36195 7.60038,4.11067 12.23995,4.93089 -0.8088,0.71886 -1.60821,1.46659 -2.40883,2.21088 l 25.5531,0 c -0.80061,-0.74429 -1.60002,-1.49202 -2.40883,-2.21088 4.63957,-0.82022 8.91602,-2.56894 12.23995,-4.93089 l -45.21534,0 z m -3.59952,92.43335 c 1.19814,1.26374 2.33915,2.57033 3.36843,3.96146 l 0,3.18032 45.67752,0 0,-3.18032 c 1.02929,-1.39113 2.17029,-2.69772 3.36844,-3.96146 l -52.41439,0 z m 3.36843,33.36549 0,7.14178 45.67752,0 0,-7.14178 -45.67752,0 z m 0,42.38338 0,0.90493 -2.7202,6.23685 22.34328,0 0,80.24037 -24.16654,37.26592 -28.59057,-44.09036 -1.38849,-0.51262 -3.2999,7.56547 25.93499,39.9929 -43.37837,0 -2.03282,4.6589 0,2.48288 160.2728,0 0,-2.48288 -2.03281,-4.6589 -43.48413,0 25.99765,-40.09054 -3.39194,-7.77645 -1.15544,0.5039 -28.48285,43.92123 -22.99347,-35.11431 0.21346,-0.7079 0,-81.19761 20.75307,0 -2.7202,-6.23685 0,-0.90493 -22.04365,0 -23.63387,0 z m 22.99935,96.45932 20.39469,31.14414 -40.59158,0 20.19689,-31.14414 z"
         id="path4637" />
      <path
         inkscape:connector-curvature="0"
         style="color:#000000;font-style:normal;font-variant:normal;font-weight:normal;font-stretch:normal;font-size:medium;line-height:normal;font-family:sans-serif;text-indent:0;text-align:start;text-decoration:none;text-decoration-line:none;text-decoration-style:solid;text-decoration-color:#000000;letter-spacing:normal;word-spacing:normal;text-transform:none;direction:ltr;block-progression:tb;writing-mode:lr-tb;baseline-shift:baseline;text-anchor:start;white-space:normal;clip-rule:nonzero;display:inline;overflow:visible;visibility:visible;opacity:1;isolation:auto;mix-blend-mode:normal;color-interpolation:sRGB;color-interpolation-filters:linearRGB;solid-color:#000000;solid-opacity:1;fill:#000000;fill-opacity:1;fill-rule:nonzero;stroke:none;stroke-width:8;stroke-linecap:butt;stroke-linejoin:bevel;stroke-miterlimit:4;stroke-dasharray:none;stroke-dashoffset:0;stroke-opacity:1;color-rendering:auto;image-rendering:auto;shape-rendering:auto;text-rendering:auto;enable-background:accumulate"
         d="m 496.05279,602.04642 c -18.71437,0 -34.6056,10.70577 -40.3977,25.61171 l 0,30.32465 c 0.59154,-0.043 1.18805,-0.0738 1.78802,-0.0907 0.37744,-0.0106 0.75335,-0.0262 1.13391,-0.0262 0.59349,0 1.18262,0.0145 1.76842,0.0401 0.34827,0.0154 0.69272,0.0435 1.03794,0.068 0.20648,0.0146 0.41546,0.0222 0.62082,0.0401 0.006,5.6e-4 0.0131,9e-4 0.0196,0.002 0.52605,0.046 1.04825,0.10259 1.56671,0.16913 0.0299,0.004 0.0603,0.006 0.09,0.0104 0.003,3.4e-4 0.005,0.002 0.008,0.002 2.76852,0.36245 5.42473,1.01455 7.93932,1.91796 l 0.0177,-0.0104 c 12.74718,4.55924 21.65393,15.61554 21.65393,28.6787 l 0,11.78148 c -2.67735,0.26517 -5.28201,0.74522 -7.78656,1.42976 l 0,-10.44415 c 0,-12.70929 -11.1621,-23.13475 -25.21625,-23.9274 l 0,-0.002 c -0.0136,-7.6e-4 -0.0289,-8.9e-4 -0.0431,-0.002 -0.55489,-0.0305 -1.11303,-0.0505 -1.67638,-0.0505 -0.48748,0 -0.97195,0.0137 -1.45313,0.0366 -0.008,3.6e-4 -0.0158,-3.6e-4 -0.0235,0 l -0.002,0.002 c -0.48475,0.0235 -0.96567,0.0603 -1.44334,0.10636 l 0,7.21501 c 0.61976,-0.0835 1.24872,-0.14265 1.8879,-0.17261 l 2.06806,0 c 10.05192,0.47139 17.88011,7.7146 17.88011,16.79433 l 0,13.47277 c -11.76163,5.76547 -20.14006,16.3161 -21.83607,28.70835 l 0,36.0175 3.68766,3.28319 17.52172,0 3.71311,-4.92218 c -0.90727,-1.97626 -1.412,-4.12202 -1.412,-6.39725 l 0,-20.564 c 0,-9.39123 8.36446,-16.83967 18.91219,-16.83967 10.54771,0 18.91414,7.44882 18.91414,16.83967 l 0,20.564 c 0,2.27525 -0.50472,4.42102 -1.41199,6.39725 l 3.7131,4.92218 17.51977,0 1.27296,-1.13159 2.28544,2.03477 17.52369,0 3.7131,-4.92217 c -0.90764,-1.97708 -1.41395,-4.12527 -1.41395,-6.39901 l 0,-20.56398 c 0,-9.39087 8.36642,-16.83969 18.91414,-16.83967 10.54772,0 18.91415,7.4488 18.91415,16.83967 l 0,20.56398 c 0,2.27527 -0.50499,4.42333 -1.412,6.39901 l 3.7131,4.92217 15.60447,0 0,-53.95214 c -4.09228,-6.16982 -10.06729,-11.23162 -17.24363,-14.5294 l 0,-13.00202 c 0,-8.88819 7.49827,-16.02662 17.24363,-16.76643 l 0,-7.16445 c -14.07732,0.77105 -25.2652,11.20678 -25.2652,23.93088 l 0,10.19134 c -2.51122,-0.62624 -5.11504,-1.05448 -7.79049,-1.26236 l 0,-11.69432 c 0,-11.43979 6.83346,-21.34008 17.09284,-26.6875 l 0.0274,0.0139 c 4.22998,-2.21058 9.02135,-3.64856 14.16701,-4.09397 0.58521,-0.0503 1.17483,-0.088 1.76843,-0.11333 l 0,-29.81029 c -5.33823,-15.60048 -21.62053,-26.94905 -40.89122,-26.94905 -17.83261,0 -33.08138,9.72971 -39.49292,23.54205 -6.41106,-13.81219 -21.65841,-23.54209 -39.49102,-23.54209 z m 0,7.14178 c 19.3072,0 34.72424,13.72765 34.72424,30.91747 l 0,10.97247 c -2.68454,0.32513 -5.2887,0.87083 -7.78852,1.6198 l 0,-9.82692 c 0,-13.22391 -12.08316,-23.9797 -26.93572,-23.9797 -14.85257,0 -26.93571,10.75579 -26.93571,23.9797 l 0,9.02835 c -2.5143,-0.57045 -5.11783,-0.93982 -7.79049,-1.09149 l 0,-10.70221 c 0,-17.18961 15.41899,-30.91747 34.7262,-30.91747 z m 78.98388,0 c 19.3072,0 34.72424,13.72765 34.72424,30.91747 l 0,12.17381 c -2.69659,0.44929 -5.30117,1.12409 -7.78852,2.00514 l 0,-11.4136 c 0,-13.22391 -12.08316,-23.9797 -26.93572,-23.9797 -14.85256,0 -26.93571,10.75579 -26.93571,23.9797 l 0,9.2742 c -2.50846,-0.63132 -5.11136,-1.06597 -7.79048,-1.27457 l 0,-10.76498 c 0,-17.18961 15.41898,-30.91747 34.72619,-30.91747 z m -78.98388,16.8449 c 10.54813,0 18.91415,7.44707 18.91415,16.83792 l 0,13.09617 c -7.63775,4.01426 -13.75326,10.0859 -17.39639,17.35751 -4.11397,-8.21273 -11.37798,-14.8971 -20.4319,-18.81167 l 0,-11.64201 c 0,-9.39086 8.366,-16.83792 18.91414,-16.83792 z m 78.98388,0 c 10.54814,0 18.91415,7.44707 18.91415,16.83792 l 0,15.18674 c -7.74281,4.65681 -13.67604,11.53318 -16.71095,19.59456 -3.39634,-9.83296 -11.07261,-17.99234 -21.11734,-22.66678 l 0,-12.11452 c 0,-9.39086 8.36601,-16.83792 18.91414,-16.83792 z M 536.568,657.86597 c 0.62079,0 1.23686,0.0152 1.84872,0.0436 10e-4,6e-5 0.003,-6e-5 0.004,0 0.0204,8.9e-4 0.0404,0.003 0.0607,0.004 0.59245,0.0285 1.18104,0.0694 1.76452,0.12379 3.62118,0.33751 7.06437,1.16723 10.26196,2.40965 l 0.0196,-0.0122 c 12.27057,4.74764 20.76482,15.59212 20.76482,28.34916 l 0,13.09093 c -2.69655,0.44794 -5.30099,1.12203 -7.78852,2.00165 l 0,-12.32549 c 0,-12.70929 -11.1621,-23.13475 -25.21625,-23.9274 l 0,-0.002 c -0.0136,-7.7e-4 -0.0289,-8.9e-4 -0.0431,-0.002 -0.55488,-0.0305 -1.11302,-0.0505 -1.67637,-0.0505 -0.23387,0 -0.33945,0.005 -0.31531,0.005 l -0.002,0.002 c -14.70677,0.15253 -26.61845,10.84523 -26.61845,23.97447 l 0,10.19829 c -2.50821,-0.63251 -5.11145,-1.06649 -7.79049,-1.2763 l 0,-11.68908 c 0,-12.10912 7.65761,-22.49212 18.92982,-27.57675 l 0.0235,0.0122 c 4.28336,-1.93859 9.06948,-3.11262 14.17287,-3.31632 l 0.002,-0.002 c 0.45016,-0.0178 0.90247,-0.027 1.35716,-0.0296 0.22887,-0.002 0.30732,-0.005 0.24089,-0.005 z m -0.30356,16.85884 0.0353,0.0314 1.30234,0 c 10.05192,0.47139 17.88011,7.71461 17.88011,16.79433 l 0,16.09341 c -7.75319,4.6566 -13.6948,11.53654 -16.7325,19.60501 -3.39424,-9.82535 -11.0618,-17.9788 -21.09579,-22.65457 l 0,-13.04385 c 0,-9.29952 8.20807,-16.68272 18.61059,-16.82572 z m -38.18667,32.73954 c 0.62304,0 1.24251,0.015 1.85655,0.0436 0.0519,0.003 0.10288,0.008 0.15472,0.0104 0.56133,0.0284 1.11921,0.0651 1.67247,0.11682 0.0164,0.002 0.0326,0.004 0.0489,0.005 3.60846,0.34176 7.03969,1.17274 10.22672,2.41314 l 0.0216,-0.0122 c 12.25886,4.75204 20.74328,15.59094 20.74328,28.34044 l 0,27.50874 -8.25071,0 c 0.27046,-1.36106 0.46218,-2.74852 0.46218,-4.17765 l 0,-20.564 c 0,-13.22392 -12.08275,-23.98144 -26.93571,-23.98144 -14.85298,0 -26.93376,10.7579 -26.93376,23.98144 l 0,20.564 c 0,1.42914 0.19173,2.81659 0.46218,4.17765 l -8.25266,0 0,-27.50874 c 0,-12.43388 8.06836,-23.05341 19.8385,-27.97952 l 0.0216,0.0122 c 4.29954,-1.8063 9.08679,-2.8452 14.17484,-2.93273 l 0.002,-0.002 c 0.22957,-0.004 0.4567,-0.0157 0.6874,-0.0157 z m 81.0304,0.90319 c 0.62302,0 1.24252,0.015 1.85656,0.0436 0.0519,0.003 0.10287,0.008 0.15471,0.0104 0.56132,0.0284 1.11922,0.0652 1.67247,0.11682 0.0197,0.002 0.039,0.005 0.0588,0.007 3.60476,0.34237 7.03271,1.17221 10.21692,2.41139 l 0.0216,-0.0122 c 12.2589,4.75154 20.74328,15.58918 20.74328,28.3387 l 0,27.51048 -8.25071,0 c 0.27064,-1.3619 0.46219,-2.74967 0.46219,-4.1794 l 0,-20.56399 c 0,-13.22392 -12.08276,-23.98146 -26.93572,-23.98144 -14.85298,-3e-5 -26.93571,10.75752 -26.93571,23.98144 l 0,20.56399 c 0,1.42988 0.19318,2.81791 0.46414,4.1794 l -8.25462,0 0,-27.51048 c 0,-11.44767 6.84323,-21.35191 17.11438,-26.69623 l 0.0235,0.0122 c 4.22869,-2.20638 9.02196,-3.63707 14.16896,-4.08002 l 0.004,-0.004 c 1.12322,-0.0958 2.26199,-0.1482 3.41543,-0.1482 z"
         id="path4639" />
    </g>
    <g
       clip-path="url(#clipPath4491)"
       id="g4641"
       transform="translate(0,-1.628125e-4)">
      <path
         style="fill:#ffffff;fill-rule:evenodd;stroke:#000000;stroke-width:7.30000019;stroke-linecap:round;stroke-linejoin:round;stroke-miterlimit:4;stroke-dasharray:none;stroke-opacity:1"
         d="m 430.64615,576.39867 c -0.86727,14.65282 -1.15484,30.43514 -3.22851,45.63867 -6.43646,1.12286 -10.99367,5.41714 -11.00196,10.36719 0.006,3.77529 2.6788,7.26634 7.02539,9.17774 -1.96542,6.86992 -4.56984,13.43724 -8.0957,19.5039 -14.57184,22.33689 -33.8503,32.4744 -45.86914,58.4961 -14.9544,32.3774 18.52374,64.14248 30.20313,90.67968 l 0,58.57227 -10,0 -17.85743,55.71289 15,46.42969 0.71289,60.7129 43.11133,0.707 0,0.01 0.23047,0 0.23047,0 0,-0.01 43.11133,-0.707 0.71289,-60.7129 15,-46.42969 -17.85742,-55.71289 -10,0 0,-58.57227 c 11.67939,-26.5372 45.15752,-58.30228 30.20312,-90.67968 -12.01884,-26.0217 -31.2973,-36.15921 -45.86914,-58.4961 -3.52586,-6.06667 -6.13028,-12.63397 -8.0957,-19.5039 4.34659,-1.9114 7.01893,-5.40245 7.02539,-9.17774 -0.008,-4.95005 -4.5655,-9.24433 -11.00195,-10.36719 -2.07377,-15.20419 -2.36116,-30.98726 -3.22852,-45.64062 l -0.23047,-3.48047 z"
         id="path4643"
         inkscape:connector-curvature="0"
         sodipodi:nodetypes="cccccscccccccccccccccccsccccccc" />
      <path
         style="color:#000000;font-style:normal;font-variant:normal;font-weight:normal;font-stretch:normal;font-size:medium;line-height:normal;font-family:sans-serif;text-indent:0;text-align:start;text-decoration:none;text-decoration-line:none;text-decoration-style:solid;text-decoration-color:#000000;letter-spacing:normal;word-spacing:normal;text-transform:none;direction:ltr;block-progression:tb;writing-mode:lr-tb;baseline-shift:baseline;text-anchor:start;white-space:normal;clip-rule:nonzero;display:inline;overflow:visible;visibility:visible;opacity:1;isolation:auto;mix-blend-mode:normal;color-interpolation:sRGB;color-interpolation-filters:linearRGB;solid-color:#000000;solid-opacity:1;fill:#000000;fill-opacity:1;fill-rule:nonzero;stroke:none;stroke-width:6.33289719;stroke-linecap:round;stroke-linejoin:round;stroke-miterlimit:4;stroke-dasharray:none;stroke-dashoffset:0;stroke-opacity:1;color-rendering:auto;image-rendering:auto;shape-rendering:auto;text-rendering:auto;enable-background:accumulate"
         d="m 427.81803,618.75414 c -0.13117,1.09524 -0.25173,2.19328 -0.40039,3.2832 -2.79434,0.48748 -5.23213,1.57366 -7.09961,3.05079 l 21.11718,0 c -1.86752,-1.47713 -4.30527,-2.56331 -7.0996,-3.05079 -0.14867,-1.08997 -0.26922,-2.18791 -0.4004,-3.2832 l -6.11718,0 z m -8.32032,20.25391 c 1.07617,1.01743 2.40187,1.89635 3.94336,2.57422 -0.36179,1.26459 -0.7533,2.51495 -1.16015,3.75781 l 17.1914,0 c -0.40685,-1.24286 -0.79836,-2.49321 -1.16015,-3.75781 1.54149,-0.67787 2.86724,-1.55679 3.94336,-2.57422 l -22.75782,0 z m -4.08398,21.95508 c -0.0235,0.0406 -0.0448,0.0825 -0.0684,0.12304 -1.82583,2.79879 -3.7257,5.40598 -5.67578,7.87696 l 42.41406,0 c -1.95008,-2.47098 -3.84995,-5.07817 -5.67578,-7.87696 -0.0236,-0.0406 -0.0449,-0.0824 -0.0684,-0.12304 l -30.92578,0 z M 381.2067,778.70531 c 1.64759,2.69993 3.32375,5.36119 4.99023,8 l 89.35938,0 c 1.66649,-2.63881 3.34264,-5.30007 4.99023,-8 l -99.33984,0 z m 14.83203,24.25782 c 1.35497,2.47266 2.58825,4.90767 3.64063,7.29882 l 0,0.70118 62.39453,0 0,-0.70118 c 1.05237,-2.39115 2.28565,-4.82616 3.64062,-7.29882 l -69.67578,0 z m 34.92578,16.29882 c -10.85269,0 -19.71484,8.86215 -19.71484,19.71485 l 0,25.98633 -11.57031,0 0,3.87109 -10,0 -1.32422,4.12891 26.58203,0 a 4.0004,4.0004 0 0 0 0.3125,0.0137 l 31.42969,0 a 4.0004,4.0004 0 0 0 0.27929,-0.0137 l 26.43946,0 -1.32422,-4.12891 -10,0 0,-3.87109 -11.39453,0 0,-25.98633 c 0,-10.8527 -8.86215,-19.71485 -19.71485,-19.71485 z m 0,8 c 6.55874,0 11.71485,5.15611 11.71485,11.71485 l 0,25.98633 -23.42969,0 0,-25.98633 c 0,-6.55874 5.15612,-11.71485 11.71484,-11.71485 z m -28.13086,60.48047 c -8.61994,-6e-5 -16.44347,3.49372 -22.14258,9.13282 l -8.86914,27.67187 0.0508,0.1582 118.00782,0 0.0508,-0.1582 -8.62305,-26.9043 c -5.75212,-6.08675 -13.88563,-9.89999 -22.88867,-9.90039 -12.08997,-9e-5 -22.50481,6.94037 -27.79297,16.97071 -5.28815,-10.03034 -15.703,-16.9708 -27.79297,-16.97071 z m 0,8 c 11.9935,-9e-5 21.72048,8.90108 23.22656,20.46875 l -4.99414,0 c -1.47924,-8.74433 -9.08596,-15.48047 -18.23242,-15.48047 -9.14645,1e-5 -16.75318,6.73615 -18.23242,15.48047 l -4.99414,0 c 1.50609,-11.56767 11.23307,-20.46884 23.22656,-20.46875 z m 55.58594,0 c 11.99305,5.3e-4 21.71862,8.90148 23.22461,20.46875 l -4.99219,0 c -1.47924,-8.74432 -9.08597,-15.48046 -18.23242,-15.48047 -9.14646,0 -16.75513,6.73614 -18.23438,15.48047 l -4.99218,0 c 1.50609,-11.56767 11.23306,-20.46884 23.22656,-20.46875 z m -55.58594,12.98828 c 4.98108,0 9.08842,3.36945 10.22266,7.97461 l -20.44531,0 c 1.13433,-4.60549 5.24126,-7.97461 10.22265,-7.97461 z m 55.58594,0 c 4.98136,0 9.08674,3.369 10.2207,7.97461 l -20.44531,0 c 1.13476,-4.6055 5.24321,-7.97461 10.22461,-7.97461 z m -72.33203,59.97461 0.73437,2.27149 0.0664,5.72851 87.97656,0 0.0664,-5.72851 0.73437,-2.27149 -89.57812,0 z"
         id="path4645"
         inkscape:connector-curvature="0" />
      <path
         inkscape:connector-curvature="0"
         style="color:#000000;font-style:normal;font-variant:normal;font-weight:normal;font-stretch:normal;font-size:medium;line-height:normal;font-family:sans-serif;text-indent:0;text-align:start;text-decoration:none;text-decoration-line:none;text-decoration-style:solid;text-decoration-color:#000000;letter-spacing:normal;word-spacing:normal;text-transform:none;direction:ltr;block-progression:tb;writing-mode:lr-tb;baseline-shift:baseline;text-anchor:start;white-space:normal;clip-rule:nonzero;display:inline;overflow:visible;visibility:visible;opacity:1;isolation:auto;mix-blend-mode:normal;color-interpolation:sRGB;color-interpolation-filters:linearRGB;solid-color:#000000;solid-opacity:1;fill:#000000;fill-opacity:1;fill-rule:evenodd;stroke:none;stroke-width:8;stroke-linecap:butt;stroke-linejoin:miter;stroke-miterlimit:4;stroke-dasharray:none;stroke-dashoffset:0;stroke-opacity:1;color-rendering:auto;image-rendering:auto;shape-rendering:auto;text-rendering:auto;enable-background:accumulate"
         d="m 413.48627,665.2614 12.91601,20.85156 -12.74804,20.57813 -15.38868,-24.84375 c -1.90818,1.99843 -3.8171,3.97572 -5.71679,5.96289 l 16.40039,26.47461 -14.26172,23.02539 -18.4668,-29.8125 c -1.60688,2.43131 -3.14665,5.00348 -4.60156,7.76172 l 18.36328,29.64648 -14.63476,23.625 c 1.4233,2.66232 2.94892,5.29448 4.51172,7.9082 l 14.82812,-23.9375 12.74609,20.57813 -6.66211,10.75391 9.41016,0 1.95703,-3.15821 1.95703,3.15821 9.41016,0 -6.66211,-10.75391 14.26172,-23.02539 14.26367,23.02539 -6.66211,10.75391 9.41016,0 1.95703,-3.15821 1.95703,3.15821 9.41016,0 -6.66211,-10.75391 12.74609,-20.57813 14.5918,23.5586 c 1.56077,-2.62051 3.08376,-5.25878 4.5,-7.92774 l -14.38672,-23.22656 18.11328,-29.24219 c -1.44523,-2.77333 -2.9756,-5.36358 -4.57422,-7.80664 l -18.24414,29.45313 -14.26172,-23.02539 16.21875,-26.1836 c -1.89854,-1.98911 -3.80793,-3.96485 -5.7168,-5.96093 l -15.20703,24.55078 -12.74804,-20.57813 12.91601,-20.85156 -9.41015,0 -8.21094,13.25586 -8.21094,-13.25586 -9.4082,0 z m 17.61914,28.44531 12.74805,20.58008 -12.74805,20.57813 -12.74609,-20.57813 12.74609,-20.58008 z m -17.45117,28.17383 12.74804,20.57813 -14.26367,23.02539 -12.74609,-20.57813 14.26172,-23.02539 z m 34.90429,0 14.26172,23.02539 -12.74609,20.57813 -14.26367,-23.02539 12.74804,-20.57813 z"
         id="path4647" />
    </g>
    <g
       transform="translate(108.057,430.28612)"
       clip-path="url(#clipPath4487)"
       id="g4649">
      <path
         style="fill:#ffffff;fill-rule:evenodd;stroke:#000000;stroke-width:7.30000019;stroke-linecap:round;stroke-linejoin:round;stroke-miterlimit:4;stroke-dasharray:none;stroke-opacity:1"
         d="m 569.7334,2.374888 c -0.86727,14.652821 -1.15484,30.435142 -3.22851,45.638672 -6.43646,1.122854 -10.99367,5.417135 -11.00196,10.367188 0.006,3.775292 2.6788,7.26634 7.02539,9.177734 -1.96542,6.869922 -4.56984,13.437244 -8.0957,19.503906 -14.57184,22.336882 -33.8503,32.474402 -45.86914,58.496102 -14.9544,32.3774 18.52374,64.14248 30.20313,90.67968 l 0,58.57227 -10,0 -17.85743,55.71289 15,46.42969 0.71289,60.71289 43.11133,0.70703 0,0.008 0.23047,-0.004 0.23047,0.004 0,-0.008 43.11133,-0.70703 0.71289,-60.71289 15,-46.42969 -17.85742,-55.71289 -10,0 0,-58.57227 c 11.67939,-26.5372 45.15752,-58.30228 30.20312,-90.67968 -12.01884,-26.0217 -31.2973,-36.15922 -45.86914,-58.496102 -3.52586,-6.066674 -6.13028,-12.63397 -8.0957,-19.503906 4.34659,-1.911394 7.01893,-5.402442 7.02539,-9.177734 -0.008,-4.950051 -4.5655,-9.244331 -11.00195,-10.367188 C 571.34909,32.809361 571.0617,17.0263 570.19434,2.372935 l -0.23047,-3.480468 z"
         id="path4651"
         inkscape:connector-curvature="0"
         sodipodi:nodetypes="cccccscccccccccccccccccsccccccc" />
      <path
         inkscape:connector-curvature="0"
         style="color:#000000;font-style:normal;font-variant:normal;font-weight:normal;font-stretch:normal;font-size:medium;line-height:normal;font-family:sans-serif;text-indent:0;text-align:start;text-decoration:none;text-decoration-line:none;text-decoration-style:solid;text-decoration-color:#000000;letter-spacing:normal;word-spacing:normal;text-transform:none;direction:ltr;block-progression:tb;writing-mode:lr-tb;baseline-shift:baseline;text-anchor:start;white-space:normal;clip-rule:nonzero;display:inline;overflow:visible;visibility:visible;opacity:1;isolation:auto;mix-blend-mode:normal;color-interpolation:sRGB;color-interpolation-filters:linearRGB;solid-color:#000000;solid-opacity:1;fill:#000000;fill-opacity:1;fill-rule:nonzero;stroke:none;stroke-width:6.33289719;stroke-linecap:round;stroke-linejoin:round;stroke-miterlimit:4;stroke-dasharray:none;stroke-dashoffset:0;stroke-opacity:1;color-rendering:auto;image-rendering:auto;shape-rendering:auto;text-rendering:auto;enable-background:accumulate"
         d="m 566.90528,44.730357 c -0.13117,1.095244 -0.25173,2.193279 -0.40039,3.283203 -2.79434,0.487478 -5.23213,1.573658 -7.09961,3.050782 l 21.11718,0 c -1.86752,-1.477124 -4.30527,-2.563303 -7.0996,-3.050782 -0.14867,-1.089972 -0.26922,-2.18791 -0.4004,-3.283203 l -6.11718,0 z m -8.32032,20.253907 c 1.07617,1.017437 2.40187,1.896353 3.94336,2.574218 -0.36179,1.264599 -0.7533,2.514956 -1.16015,3.757813 l 17.1914,0 c -0.40685,-1.242857 -0.79836,-2.493211 -1.16015,-3.757813 1.54149,-0.677865 2.86724,-1.556781 3.94336,-2.574218 l -22.75782,0 z m -4.08398,21.955078 c -0.0235,0.04062 -0.0448,0.08247 -0.0684,0.123046 -1.82583,2.798784 -3.7257,5.40598 -5.67578,7.876954 l 42.41406,0 c -1.95008,-2.470974 -3.84995,-5.07817 -5.67578,-7.876954 -0.0236,-0.04057 -0.0449,-0.08243 -0.0684,-0.123046 l -30.92578,0 z M 520.29395,204.68153 c 1.64759,2.69993 3.32375,5.36119 4.99023,8 l 89.35938,0 c 1.66649,-2.63881 3.34264,-5.30007 4.99023,-8 l -99.33984,0 z m 14.83203,24.25782 c 1.35497,2.47266 2.58825,4.90767 3.64063,7.29882 l 0,0.70118 62.39453,0 0,-0.70118 c 1.05237,-2.39115 2.28565,-4.82616 3.64062,-7.29882 l -69.67578,0 z m 34.92578,16.29882 c -10.85269,0 -19.71484,8.86215 -19.71484,19.71485 l 0,25.98633 -11.57031,0 0,3.87109 -10,0 -1.32422,4.12891 26.58203,0 a 4.0004,4.0004 0 0 0 0.3125,0.0137 l 31.42969,0 a 4.0004,4.0004 0 0 0 0.27929,-0.0137 l 26.43946,0 -1.32422,-4.12891 -10,0 0,-3.87109 -11.39453,0 0,-25.98633 c 0,-10.8527 -8.86215,-19.71485 -19.71485,-19.71485 z m 0,8 c 6.55874,0 11.71485,5.15611 11.71485,11.71485 l 0,25.98633 -23.42969,0 0,-25.98633 c 0,-6.55874 5.15612,-11.71485 11.71484,-11.71485 z m -28.13086,60.48047 c -8.61994,-6e-5 -16.44347,3.49372 -22.14258,9.13282 l -8.86914,27.67187 0.0508,0.1582 118.00782,0 0.0508,-0.1582 -8.62305,-26.9043 c -5.75212,-6.08675 -13.88563,-9.89999 -22.88867,-9.90039 -12.08997,-9e-5 -22.50481,6.94037 -27.79297,16.97071 -5.28815,-10.03034 -15.703,-16.9708 -27.79297,-16.97071 z m 0,8 c 11.9935,-9e-5 21.72048,8.90108 23.22656,20.46875 l -4.99414,0 c -1.47924,-8.74433 -9.08596,-15.48047 -18.23242,-15.48047 -9.14645,10e-6 -16.75318,6.73615 -18.23242,15.48047 l -4.99414,0 c 1.50609,-11.56767 11.23307,-20.46884 23.22656,-20.46875 z m 55.58594,0 c 11.99305,5.3e-4 21.71862,8.90148 23.22461,20.46875 l -4.99219,0 c -1.47924,-8.74432 -9.08597,-15.48046 -18.23242,-15.48047 -9.14646,0 -16.75513,6.73614 -18.23438,15.48047 l -4.99218,0 c 1.50609,-11.56767 11.23306,-20.46884 23.22656,-20.46875 z m -55.58594,12.98828 c 4.98108,0 9.08842,3.36945 10.22266,7.97461 l -20.44531,0 c 1.13433,-4.60549 5.24126,-7.97461 10.22265,-7.97461 z m 55.58594,0 c 4.98136,0 9.08674,3.369 10.2207,7.97461 l -20.44531,0 c 1.13476,-4.6055 5.24321,-7.97461 10.22461,-7.97461 z m -72.33203,59.97461 0.73437,2.27149 0.0664,5.72851 87.97656,0 0.0664,-5.72851 0.73437,-2.27149 -89.57812,0 z"
         id="path4653" />
      <path
         inkscape:connector-curvature="0"
         style="color:#000000;font-style:normal;font-variant:normal;font-weight:normal;font-stretch:normal;font-size:medium;line-height:normal;font-family:sans-serif;text-indent:0;text-align:start;text-decoration:none;text-decoration-line:none;text-decoration-style:solid;text-decoration-color:#000000;letter-spacing:normal;word-spacing:normal;text-transform:none;direction:ltr;block-progression:tb;writing-mode:lr-tb;baseline-shift:baseline;text-anchor:start;white-space:normal;clip-rule:nonzero;display:inline;overflow:visible;visibility:visible;opacity:1;isolation:auto;mix-blend-mode:normal;color-interpolation:sRGB;color-interpolation-filters:linearRGB;solid-color:#000000;solid-opacity:1;fill:#000000;fill-opacity:1;fill-rule:evenodd;stroke:none;stroke-width:8;stroke-linecap:butt;stroke-linejoin:miter;stroke-miterlimit:4;stroke-dasharray:none;stroke-dashoffset:0;stroke-opacity:1;color-rendering:auto;image-rendering:auto;shape-rendering:auto;text-rendering:auto;enable-background:accumulate"
         d="m 549.76661,104.58192 -20.35743,20.35742 -4.20312,-4.20312 c -1.75298,1.97971 -3.4693,4.0333 -5.14258,6.17187 l 9.3457,9.34376 20.35547,-20.35743 21.42969,21.42969 21.07031,-21.07032 18.92969,18.92774 8.49609,-8.4961 c -1.67792,-2.13348 -3.39963,-4.18115 -5.15625,-6.1582 l -3.33984,3.33985 -18.92773,-18.92774 -21.07227,21.07031 -21.42773,-21.42773 z m 0,30 -20.35743,20.35743 -16.91992,-16.92188 c -1.37516,2.36869 -2.69091,4.86743 -3.92578,7.54102 -0.58114,1.25822 -1.08055,2.51538 -1.51953,3.77148 l 2.7207,-2.7207 19.64453,19.64258 20.35547,-20.35743 21.42969,21.42969 21.07031,-21.07031 18.92969,18.92773 19.99219,-19.99218 c -1.22749,-2.62681 -2.53106,-5.08848 -3.89453,-7.41993 l -16.09766,16.09766 -18.92773,-18.92773 -21.07227,21.07031 -21.42773,-21.42774 z m 82.14257,28.57032 -20.71484,20.71484 -18.92773,-18.92773 -21.07227,21.07031 -21.42773,-21.42774 -20.35743,20.35743 -19.64257,-19.64454 -4.42383,4.42383 c 0.47187,3.05165 1.23276,6.08663 2.21094,9.10156 l 2.21093,-2.21093 19.64453,19.64258 20.35547,-20.35743 21.42969,21.42969 21.07031,-21.07031 18.92969,18.92773 20.71484,-20.71484 1.36133,1.36133 c 0.86562,-3.1779 1.46334,-6.37665 1.72266,-9.5918 l -3.08399,-3.08398 z"
         id="path4655" />
    </g>
    <rect
       ry="31.181688"
       y="779.64838"
       x="82.485596"
       height="210.8569"
       width="733.71405"
       id="rect4657"
       style="opacity:1;fill:#ffffff;fill-opacity:1;fill-rule:nonzero;stroke:#000000;stroke-width:20;stroke-linecap:butt;stroke-linejoin:bevel;stroke-miterlimit:4;stroke-dasharray:none;stroke-opacity:1" />
    <g
       transform="translate(-900,-1.628125e-4)"
       style="font-style:normal;font-weight:normal;font-size:166.75631714px;line-height:125%;font-family:Sans;letter-spacing:0px;word-spacing:0px;fill:#000000;fill-opacity:1;stroke:none;stroke-width:1px;stroke-linecap:butt;stroke-linejoin:miter;stroke-opacity:1"
       id="flowRoot4659">
      <path
         d="m 1038.5054,898.92249 0,17.18046 16.8548,0 q 6.0254,0 8.5495,2.36129 2.6056,2.27988 2.6056,6.02538 0,3.66408 -2.6056,6.02537 -2.5241,2.27988 -8.5495,2.27988 l -36.1522,0 q -6.0254,0 -8.631,-2.27988 -2.5241,-2.36129 -2.5241,-6.10679 0,-3.66408 2.6055,-5.94396 2.6056,-2.36129 8.5496,-2.36129 l 2.6055,0 0,-65.30204 -2.6055,0 q -6.0254,0 -8.631,-2.27987 -2.5241,-2.36129 -2.5241,-6.1068 0,-3.7455 2.5241,-6.02537 2.6056,-2.3613 8.631,-2.3613 l 38.4321,0.0814 q 16.9362,0 26.7885,9.28233 9.9337,9.20091 9.9337,22.47302 0,7.32816 -3.3384,13.84208 -2.5241,4.88544 -8.4681,9.68945 -5.8625,4.72259 -12.0507,7.16531 -6.1068,2.3613 -16.2034,2.3613 l -15.7963,0 z m 0,-16.69192 15.4706,0 q 10.9108,0 17.2619,-4.88544 6.4325,-4.96686 6.4325,-11.8879 0,-5.86253 -5.2112,-10.25942 -5.1297,-4.3969 -14.7377,-4.3969 l -19.2161,0 0,31.42966 z"
         style="font-style:normal;font-variant:normal;font-weight:bold;font-stretch:normal;font-family:'Courier New';-inkscape-font-specification:'Courier New'"
         id="path4166" />
      <path
         d="m 1144.6823,858.86189 0,10.42227 q 10.5037,-7.57243 16.5291,-10.09657 6.1068,-2.52415 11.3993,-2.52415 8.1424,0 15.7963,6.02538 5.2111,4.0712 5.2111,8.30524 0,3.58266 -2.5241,6.1068 -2.4427,2.44272 -5.944,2.44272 -3.0941,0 -6.5139,-3.09411 -3.4198,-3.09411 -6.1068,-3.09411 -3.5012,0 -10.5037,4.39689 -6.921,4.3969 -17.3433,13.19069 l 0,25.16001 23.7758,0 q 6.0254,0 8.5495,2.36129 2.6056,2.27988 2.6056,6.02538 0,3.66408 -2.6056,6.02537 -2.5241,2.27988 -8.5495,2.27988 l -50.4014,0 q -6.0254,0 -8.631,-2.27988 -2.5241,-2.36129 -2.5241,-6.10679 0,-3.66408 2.5241,-5.94396 2.6056,-2.36129 8.631,-2.36129 l 9.9337,0 0,-40.54914 -6.0254,0 q -6.0254,0 -8.6309,-2.27988 -2.5242,-2.36129 -2.5242,-6.10679 0,-3.66408 2.5242,-5.94396 2.6055,-2.36129 8.6309,-2.36129 l 22.7173,0 z"
         style="font-style:normal;font-variant:normal;font-weight:bold;font-stretch:normal;font-family:'Courier New';-inkscape-font-specification:'Courier New'"
         id="path4168" />
      <path
         d="m 1291.4897,897.21259 q 0,9.60803 -5.3739,18.64609 -5.2926,8.95664 -15.8777,14.33062 -10.5037,5.29256 -21.9845,5.29256 -11.3993,0 -21.8216,-5.21114 -10.4223,-5.29256 -15.8777,-14.33062 -5.4554,-9.03806 -5.4554,-18.89036 0,-10.01515 5.5368,-19.62318 5.5369,-9.68946 15.8777,-15.22629 10.4223,-5.53683 21.7402,-5.53683 11.3994,0 21.9031,5.69968 10.5851,5.61826 15.9591,15.22629 5.3739,9.5266 5.3739,19.62318 z m -16.6919,0.0814 q 0,-8.06098 -5.7811,-14.81917 -7.8981,-9.11948 -20.7631,-9.11948 -11.3179,0 -18.8904,7.24673 -7.5724,7.24674 -7.5724,16.77334 0,7.81671 7.6539,14.65632 7.6538,6.75819 18.8089,6.75819 11.2365,0 18.8904,-6.75819 7.6538,-6.83961 7.6538,-14.73774 z"
         style="font-style:normal;font-variant:normal;font-weight:bold;font-stretch:normal;font-family:'Courier New';-inkscape-font-specification:'Courier New'"
         id="path4170" />
      <path
         d="m 1366.4812,863.82875 0,-4.96686 19.5418,0 q 6.0254,0 8.5495,2.36129 2.6056,2.27988 2.6056,6.02538 0,3.66408 -2.6056,6.02537 -2.5241,2.27988 -8.5495,2.27988 l -2.8499,0 0,60.74229 q 0,8.79379 -3.7455,15.30771 -3.664,6.59534 -11.3179,11.31793 -7.6538,4.72259 -17.2619,4.72259 l -18.8903,0 q -6.0254,0 -8.631,-2.3613 -2.5241,-2.27987 -2.5241,-5.94395 0,-3.7455 2.5241,-6.10679 2.6056,-2.27988 8.631,-2.27988 l 18.4018,0 q 7.6538,0 11.8879,-4.15262 4.234,-4.15262 4.234,-10.50369 l 0,-8.1424 q -5.5368,3.58265 -11.3179,5.37398 -5.6997,1.79133 -11.7251,1.79133 -17.0176,0 -28.4984,-11.31793 -11.4807,-11.39936 -11.4807,-28.09128 0,-16.77334 11.4807,-28.09127 11.4808,-11.39936 28.4984,-11.39936 6.3511,0 12.0508,1.87275 5.7811,1.79133 10.9922,5.53683 z m -0.081,31.99963 q 0,-9.20091 -6.8396,-15.9591 -6.7582,-6.75819 -16.2848,-6.75819 -9.5266,0 -16.3662,6.75819 -6.7582,6.75819 -6.7582,15.9591 0,9.28233 6.7582,16.04052 6.8396,6.67677 16.3662,6.67677 9.5266,0 16.2848,-6.67677 6.8396,-6.75819 6.8396,-16.04052 z"
         style="font-style:normal;font-variant:normal;font-weight:bold;font-stretch:normal;font-family:'Courier New';-inkscape-font-specification:'Courier New'"
         id="path4172" />
      <path
         d="m 1422.0124,866.3529 0,49.75005 6.0254,0 q 6.0253,0 8.5495,2.36129 2.6055,2.27988 2.6055,6.02538 0,3.66408 -2.6055,6.02537 -2.5242,2.27988 -8.5495,2.27988 l -21.9031,0 q -6.0254,0 -8.5495,-2.27988 -2.6056,-2.36129 -2.6056,-6.10679 0,-3.66408 2.5242,-5.94396 2.5241,-2.36129 7.8167,-2.36129 l 0,-65.30204 q -4.3969,-0.40712 -6.6768,-2.68699 -2.1984,-2.27987 -2.1984,-5.69968 0,-3.7455 2.5241,-6.02537 2.6056,-2.3613 8.6309,-2.3613 l 18.3204,0.0814 22.7173,50.2386 22.3102,-50.32003 18.4832,0.0814 q 6.0254,0 8.5496,2.27987 2.6055,2.27987 2.6055,6.02537 0,3.41981 -2.2798,5.69968 -2.2799,2.27987 -6.5954,2.68699 l 0,65.30204 q 5.2926,0 7.8167,2.36129 2.5242,2.3613 2.5242,6.02538 0,3.66408 -2.6056,6.02537 -2.5242,2.27988 -8.5495,2.27988 l -21.9845,0 q -5.944,0 -8.5495,-2.27988 -2.5242,-2.36129 -2.5242,-6.10679 0,-3.66408 2.5242,-5.94396 2.6055,-2.36129 8.5495,-2.36129 l 6.1068,0 0,-49.75005 -19.1346,42.99186 -14.4935,0 -19.3789,-42.99186 z"
         style="font-style:normal;font-variant:normal;font-weight:bold;font-stretch:normal;font-family:'Courier New';-inkscape-font-specification:'Courier New';fill:#ff0000"
         id="path4174" />
      <path
         d="m 1566.1328,878.40365 q -4.0712,-2.52415 -8.5495,-3.74551 -4.4783,-1.30278 -9.3637,-1.30278 -9.6895,0 -15.3892,3.17553 -2.5241,1.38421 -2.5241,3.01269 0,1.87275 3.4198,3.66408 2.6055,1.30278 11.6436,2.52414 16.6105,2.27988 23.1244,4.55975 8.5495,3.01268 13.1907,8.95663 4.6412,5.94396 4.6412,12.5393 0,8.95664 -7.8982,14.98201 -11.3179,8.71237 -29.394,8.71237 -7.2467,0 -13.435,-1.30279 -6.1068,-1.22136 -11.2365,-3.66408 -1.2213,1.05852 -2.6055,1.62848 -1.3843,0.56997 -2.8499,0.56997 -3.9083,0 -6.2696,-2.52414 -2.2799,-2.60557 -2.2799,-8.63094 l 0,-5.61826 q 0,-6.02537 2.2799,-8.54952 2.3613,-2.60556 6.1068,-2.60556 3.0127,0 5.0483,1.7099 2.0356,1.62848 3.1755,5.69968 3.8269,3.25696 9.2009,4.96686 5.374,1.62848 12.3764,1.62848 11.4808,0 17.8319,-3.58265 3.0127,-1.79133 3.0127,-3.74551 0,-3.25696 -4.3155,-5.37398 -4.3155,-2.11702 -17.8318,-3.58266 -20.1118,-2.11702 -26.87,-8.14239 -6.7581,-5.94396 -6.7581,-14.65632 0,-8.95664 7.5724,-14.90059 10.2594,-8.1424 26.8699,-8.1424 5.7811,0 11.0737,1.13994 5.3739,1.05851 10.2594,3.33838 1.547,-1.13994 2.8498,-1.7099 1.3842,-0.56997 2.5242,-0.56997 3.4198,0 5.6996,2.60557 2.2799,2.52414 2.2799,8.54951 l 0,4.0712 q 0,5.45541 -1.3028,7.40959 -2.6055,3.7455 -7.0839,3.7455 -3.0126,0 -5.2925,-1.87275 -2.2799,-1.87275 -2.9313,-4.96686 z"
         style="font-style:normal;font-variant:normal;font-weight:bold;font-stretch:normal;font-family:'Courier New';-inkscape-font-specification:'Courier New';fill:#ff0000"
         id="path4176" />
      <path
         d="m 1634.3661,905.02929 0,27.76558 -19.5417,0 q -6.0254,0 -8.631,-2.27988 -2.5241,-2.36129 -2.5241,-6.10679 0,-3.66408 2.6055,-5.94396 2.6056,-2.36129 8.5496,-2.36129 l 2.8498,0 0,-72.22307 -2.8498,0 q -6.0254,0 -8.631,-2.27988 -2.5241,-2.36129 -2.5241,-6.10679 0,-3.66408 2.5241,-5.94395 2.6056,-2.3613 8.631,-2.3613 l 19.5417,0 0,56.26397 13.0279,-10.50369 q -2.0356,-3.50123 -2.0356,-5.69968 0,-3.7455 2.5241,-6.02538 2.5241,-2.36129 8.5495,-2.36129 l 19.0532,0 q 6.0254,0 8.5496,2.36129 2.6055,2.27988 2.6055,6.02538 0,3.66408 -2.6055,6.02537 -2.5242,2.27988 -8.5496,2.27988 l -4.6411,0 -20.2746,16.44764 27.277,24.1015 4.8855,0 q 6.0253,0 8.5495,2.36129 2.6056,2.27988 2.6056,6.02538 0,3.66408 -2.6056,6.02537 -2.5242,2.27988 -8.5495,2.27988 l -19.2161,0 q -6.0254,0 -8.6309,-2.27988 -2.5242,-2.36129 -2.5242,-6.10679 0,-3.17554 2.7684,-6.26965 l -17.669,-15.63341 -3.0941,2.52415 z"
         style="font-style:normal;font-variant:normal;font-weight:bold;font-stretch:normal;font-family:'Courier New';-inkscape-font-specification:'Courier New';fill:#ff0000"
         id="path4178" />
    </g>
  </g>
</svg>
