<?xml version="1.0" encoding="UTF-8"?>
<svg id="_Слой_2" data-name="Слой 2" xmlns="http://www.w3.org/2000/svg" viewBox="0 0 48 48">
  <defs>
    <style>
      .cls-1, .cls-2 {
        stroke-width: 0px;
      }

      .cls-2 {
        fill: #fff;
        fill-rule: evenodd;
      }
    </style>
  </defs>
  <g id="_Слой_1-2" data-name="Слой 1">
    <path class="cls-1" d="M24.72,0c.12,9.73.79,15.2,4.44,18.84,3.65,3.65,9.12,4.31,18.85,4.44C47.63,10.59,37.41.37,24.72,0Z"/>
    <path class="cls-1" d="M18.85,18.84C22.5,15.2,23.16,9.73,23.28,0,10.59.37.37,10.59,0,23.28c9.73-.12,15.2-.79,18.85-4.44Z"/>
    <path class="cls-1" d="M0,24.72c.37,12.69,10.59,22.91,23.28,23.28-.12-9.73-.79-15.2-4.44-18.84-3.65-3.65-9.12-4.31-18.85-4.44Z"/>
    <path class="cls-1" d="M48,24.72c-9.73.12-15.2.79-18.85,4.44-3.65,3.65-4.31,9.12-4.44,18.84,12.69-.37,22.91-10.59,23.28-23.28Z"/>
    <path class="cls-2" d="M48,24c0,.24,0,.48-.01.72-9.72.12-15.19.79-18.83,4.44-3.65,3.65-4.31,9.11-4.44,18.83-.24,0-.48.01-.72.01s-.48,0-.72-.01c-.12-9.72-.79-15.19-4.44-18.83C15.2,25.51,9.73,24.84.01,24.72c0-.24-.01-.48-.01-.72s0-.48.01-.72c9.72-.12,15.19-.79,18.83-4.44C22.49,15.2,23.16,9.73,23.28.01c.24,0,.48-.01.72-.01s.48,0,.72.01c.12,9.72.79,15.19,4.44,18.83,3.65,3.65,9.11,4.31,18.83,4.44,0,.24.01.48.01.72Z"/>
  </g>
</svg>